<?xml version="1.0" encoding="iso-8859-1"?>
<!-- Generator: Adobe Illustrator 19.0.0, SVG Export Plug-In . SVG Version: 6.00 Build 0)  -->
<svg version="1.1" id="Capa_1" xmlns="http://www.w3.org/2000/svg" xmlns:xlink="http://www.w3.org/1999/xlink" x="0px" y="0px"
	 viewBox="0 0 336 336" style="enable-background:new 0 0 336 336;" xml:space="preserve" fill="#19ff52">
<g>
	<g>
		<g>
			<path d="M272,0H115.16c-2.161,0.111-4.225,0.926-5.88,2.32L45.04,66.8c-1.586,1.512-2.483,3.609-2.48,5.8v241.96
				C42.582,326.392,52.168,335.978,64,336h208c11.693-0.02,21.222-9.389,21.44-21.08V21.44C293.418,9.608,283.832,0.022,272,0z
				 M190.04,16h47v75.04l-16.68-26.6c-0.676-1.126-1.618-2.069-2.744-2.744c-3.789-2.273-8.703-1.045-10.976,2.744l-16.6,26.48V16z
				 M107.08,27.4v22.28c-0.022,8.187-6.653,14.818-14.84,14.84H69.96L107.08,27.4z M277.28,314.72
				c-0.022,2.907-2.373,5.258-5.28,5.28H64c-0.041,0.001-0.082,0.002-0.123,0.002c-2.938,0.021-5.337-2.344-5.357-5.282V80.68h33.72
				c17.103-0.044,30.956-13.897,31-31V16h50.64v81.68c-0.034,3.604,1.15,7.113,3.36,9.96c3.361,4.274,9.055,5.958,14.2,4.2l0.6-0.2
				c3.819-1.603,7.008-4.413,9.08-8l12.44-20l12.44,20c2.072,3.587,5.261,6.397,9.08,8c5.275,2.081,11.291,0.455,14.8-4
				c2.21-2.847,3.394-6.356,3.36-9.96V16L272,16c2.892,0.021,5.237,2.349,5.28,5.24V314.72z"/>
			<path d="M238.48,188.4h-141c-4.418,0-8,3.582-8,8s3.582,8,8,8h141c4.418,0,8-3.582,8-8S242.898,188.4,238.48,188.4z"/>
			<path d="M238.48,149h-141c-4.418,0-8,3.582-8,8s3.582,8,8,8h141c4.418,0,8-3.582,8-8S242.898,149,238.48,149z"/>
		</g>
	</g>
</g>
<g>
</g>
<g>
</g>
<g>
</g>
<g>
</g>
<g>
</g>
<g>
</g>
<g>
</g>
<g>
</g>
<g>
</g>
<g>
</g>
<g>
</g>
<g>
</g>
<g>
</g>
<g>
</g>
<g>
</g>
</svg>
